<svg aria-hidden="true" style="position: absolute; width: 0; height: 0; overflow: hidden;" version="1.1" xmlns="http://www.w3.org/2000/svg" xmlns:xlink="http://www.w3.org/1999/xlink">
<defs>
<symbol id="icon-arrow" viewBox="0 0 32 32">
<path fill="none" stroke="#d41443" style="stroke: var(--color1, #d41443)" stroke-linejoin="round" stroke-linecap="round" stroke-miterlimit="4" stroke-width="6.4" d="M9.6 3.2l12.8 12.8-12.8 12.8"></path>
</symbol>
<symbol id="icon-telegram" viewBox="0 0 32 32">
<path fill="#fea5bb" style="fill: var(--color2, #fea5bb)" d="M32 16c0 8.837-7.163 16-16 16s-16-7.163-16-16c0-8.837 7.163-16 16-16s16 7.163 16 16z"></path>
<path fill="#fff" style="fill: var(--color3, #fff)" d="M12.866 18.372l-0.32 4.169c0.461 0 0.659-0.179 0.894-0.395l2.127-1.901 4.424 3.012c0.8 0.424 1.374 0.207 1.591-0.687l2.889-12.687c0.254-1.12-0.433-1.553-1.224-1.28l-17.035 6.089c-1.158 0.414-1.139 1.026-0.188 1.299l4.348 1.261 10.118-5.901c0.471-0.301 0.904-0.132 0.546 0.16l-8.179 6.852z"></path>
</symbol>
<symbol id="icon-home" viewBox="0 0 32 32">
<path fill="#d31342" style="fill: var(--color4, #d31342)" d="M31.6 15.44c0.259-0.244 0.42-0.589 0.42-0.972 0-0.444-0.217-0.837-0.55-1.079l-0.004-0.003-14.293-11.653c-0.315-0.252-0.72-0.404-1.16-0.404s-0.845 0.152-1.164 0.407l0.004-0.003-14.347 12.293c-0.32 0.246-0.524 0.629-0.524 1.060 0 0.394 0.171 0.748 0.443 0.993l0.001 0.001 0.373 0.347c0.587 0.587 1.547 0.64 2.133 0.16l1.067-0.907v13.12c0 0.8 0.72 1.467 1.6 1.467h5.573c0.853 0 1.547-0.667 1.547-1.467v-9.2h7.147v9.173c0 0.8 0.613 1.467 1.467 1.467h5.92c0.88 0 1.573-0.667 1.573-1.467v-12.933s0.267 0.267 0.667 0.533c0.347 0.32 1.12 0.080 1.707-0.533l0.4-0.4z"></path>
</symbol>
<symbol id="icon-github" viewBox="0 0 32 32">
<path fill="#fea5bb" style="fill: var(--color2, #fea5bb)" d="M32 16c0 8.837-7.163 16-16 16s-16-7.163-16-16c0-8.837 7.163-16 16-16s16 7.163 16 16z"></path>
<path fill="#fff" style="fill: var(--color3, #fff)" d="M16 6.588c-5.176 0-9.412 4.235-9.412 9.412 0 4.414 3.096 8.414 7.209 9.412v-3.106c-0.156 0.037-0.335 0.059-0.519 0.059-0.865 0-1.619-0.474-2.016-1.177l-0.006-0.012c-0.216-0.376-0.593-0.753-0.988-0.734l-0.094-1.092c0.847-0.075 1.591 0.518 2.024 1.252 0.198 0.329 0.424 0.527 0.715 0.612 0.282 0.075 0.574 0.038 0.922-0.085 0.094-0.696 0.405-0.96 0.649-1.318v-0.009c-2.447-0.367-3.426-1.666-3.821-2.692-0.161-0.435-0.254-0.937-0.254-1.461 0-1.017 0.351-1.951 0.939-2.689l-0.007 0.009c0.019-0.019 0.047-0.075 0.038-0.113-0.424-1.261 0.094-2.306 0.104-2.409 0.48 0.141 0.565-0.151 2.089 0.781l0.264 0.16c0.113 0.066 0.075 0.028 0.188 0.019 0.64-0.169 1.318-0.264 1.976-0.282 0.668 0.019 1.336 0.113 2.005 0.282l0.085 0.019 0.075-0.038c1.911-1.158 1.845-0.781 2.353-0.941 0.019 0.104 0.518 1.167 0.104 2.409-0.056 0.169 1.656 1.732 0.715 4.254-0.395 1.026-1.365 2.325-3.821 2.692 0.311 0.48 0.696 0.734 0.687 1.722v3.887c4.113-0.998 7.209-4.998 7.209-9.412 0-5.176-4.235-9.412-9.412-9.412z"></path>
</symbol>
<symbol id="icon-facebook" viewBox="0 0 32 32">
<path fill="#fea5bb" style="fill: var(--color2, #fea5bb)" d="M16 32c8.837 0 16-7.163 16-16s-7.163-16-16-16v0c-8.837 0-16 7.163-16 16s7.163 16 16 16v0z"></path>
<path fill="#fff" style="fill: var(--color3, #fff)" d="M20.442 15.981h-2.607v9.619h-3.953v-9.619h-1.882v-3.388h1.882v-2.184c0-1.562 0.734-4.009 3.991-4.009l2.927 0.009v3.285h-2.127c-0.348 0-0.838 0.179-0.838 0.922v1.986h2.955l-0.348 3.379z"></path>
</symbol>
<symbol id="icon-Burger" viewBox="0 0 46 32">
<path fill="none" stroke="#d41443" style="stroke: var(--color1, #d41443)" stroke-linejoin="miter" stroke-linecap="butt" stroke-miterlimit="4" stroke-width="2.2857" d="M0 2.286h45.714M0 16h45.714M0 29.714h45.714"></path>
</symbol>
<symbol id="icon-close" viewBox="0 0 32 32">
<path fill="none" stroke="#fff" style="stroke: var(--color1, #fff)" stroke-linejoin="miter" stroke-linecap="butt" stroke-miterlimit="4" stroke-width="2" d="M2.52 2l26.96 28M2 29.48l28-26.96"></path>
</symbol>
</defs>
</svg>
